<?xml version="1.0" encoding="UTF-8"?><svg id="Layer_1" xmlns="http://www.w3.org/2000/svg" width="24" height="24" xmlns:xlink="http://www.w3.org/1999/xlink" viewBox="0 0 24 24"><defs><style>.cls-1{fill:url(#linear-gradient);}</style><linearGradient id="linear-gradient" x1="12" y1="0" x2="12" y2="24" gradientUnits="userSpaceOnUse"><stop offset="0" stop-color="#ed423d"/><stop offset=".31" stop-color="#839631"/><stop offset=".5" stop-color="#49c52b"/><stop offset=".66" stop-color="#409d6b"/><stop offset=".82" stop-color="#397aa5"/><stop offset=".94" stop-color="#3464c9"/><stop offset="1" stop-color="#335cd7"/></linearGradient></defs><path class="cls-1" d="M4.02,10.69c1.21,.17,2.51,1.31,2.98,1.78V1.95C7,.87,7.92,0,9,0s2,.88,2,1.96v6.06c0,.78,.81,.89,.92,.1,.22-1.6,2.52-1.82,2.69,.4,.04,.55,.73,.65,.87,.03,.33-1.44,2.5-1.46,2.76,.76,.07,.58,.8,.7,.85,.03,.05-.67,.28-.93,.61-.93,1.1,0,2.31,2.02,2.31,4.41,0,4.3-3,4.31-3,11.19H9c-.33-3.94-3.46-7.43-6.27-10.24-.49-.49-.73-1.05-.73-1.56,0-.93,.76-1.69,2.02-1.51Z"/></svg>