<?xml version="1.0" encoding="utf-8"?>
<!-- Generator: Adobe Illustrator 26.5.0, SVG Export Plug-In . SVG Version: 6.00 Build 0)  -->
<svg version="1.1" id="Layer_1" xmlns="http://www.w3.org/2000/svg" xmlns:xlink="http://www.w3.org/1999/xlink" x="0px" y="0px"
	 viewBox="0 0 326.1 1010.6" style="enable-background:new 0 0 326.1 1010.6;" xml:space="preserve">
<style type="text/css">
	.st0{fill:#CCCCCC;}
</style>
<g>
	<path class="st0" d="M318.6,349.8v6.6h-33v-6.3h-6.5v318.6H50.3l-1.7-318.9h-5v6.6h-33v-6.6H2.2L1.1,689.9l325-2V349.8H318.6z
		 M10.6,380.5h31v18h-31C10.6,398.5,10.6,380.5,10.6,380.5z M42.6,670.5h-31v-18h31V670.5z M42.6,626.5h-31v-18h31V626.5z
		 M42.6,580.5h-31v-18h31V580.5z M42.6,533.5h-31v-18h31V533.5z M42.6,489.5h-31v-18h31V489.5z M42.6,443.5h-31v-18h31V443.5z
		 M317.6,671.5h-31v-18h31V671.5z M317.6,627.5h-31v-18h31V627.5z M317.6,581.5h-31v-18h31V581.5z M317.6,534.5h-31v-18h31V534.5z
		 M317.6,490.5h-31v-18h31V490.5z M317.6,444.5h-31v-18h31V444.5z M317.6,398.5h-31v-18h31V398.5z"/>
	<path class="st0" d="M318.6,32.2v6.6h-32.9v-6.3h-6.5v318.5h-228L49.5,32.2h-5v6.6H11.6v-6.6H3.3L2.2,372.2l323.9-2V32.1
		L318.6,32.2z M11.6,62.8h30.9v18H11.6V62.8z M43.5,352.8H12.6v-18h30.9V352.8z M43.5,308.8H12.6v-18h30.9V308.8z M43.5,262.8H12.6
		v-18h30.9V262.8z M43.5,215.8H12.6v-18h30.9V215.8z M43.5,171.8H12.6v-18h30.9V171.8z M43.5,125.8H12.6v-18h30.9V125.8z
		 M317.6,353.8h-30.9v-18h30.9V353.8z M317.6,309.8h-30.9v-18h30.9V309.8z M317.6,263.8h-30.9v-18h30.9V263.8z M317.6,216.8h-30.9
		v-18h30.9V216.8z M317.6,172.8h-30.9v-18h30.9V172.8z M317.6,126.8h-30.9v-18h30.9V126.8z M317.6,80.8h-30.9v-18h30.9V80.8z"/>
	<path class="st0" d="M318,673.7v6.5h-33v-6.3h-6.6v315.6H49.3l-1.7-315.9h-5v6.6H9.5v-6.6H1.1l-1.1,337l325.6-2v-335L318,673.7z
		 M9.5,704h31.1v17.8H9.5V704z M41.6,991.2H10.5v-17.8h31.1V991.2z M41.6,947.7H10.5v-17.8h31.1V947.7z M41.6,902.1H10.5v-17.8h31.1
		V902.1z M41.6,855.6H10.5v-17.8h31.1V855.6z M41.6,811.9H10.5v-17.8h31.1V811.9z M41.6,766.3H10.5v-17.8h31.1V766.3z M317,992.2
		h-31v-17.8h31V992.2z M317,948.7h-31v-17.8h31V948.7z M317,903.1h-31v-17.8h31V903.1z M317,856.6h-31v-17.8h31V856.6z M317,812.9
		h-31v-17.8h31V812.9z M317,767.3h-31v-17.8h31V767.3z M317,721.8h-31V704h31V721.8z"/>
	<path class="st0" d="M325.6,341.5V2L2.7,0l1.1,341.5h8.3v-6.6h32.8v6.6h5l1.7-320.2h227.2v319.8l6.5,0.1v-6.3h32.8v6.6H325.6z
		 M12.1,292.7h30.8v18.1H12.1V292.7z M43.9,37.7H13.1V19.6h30.8V37.7z M43.9,81.8H13.1v-18h30.8V81.8z M43.9,128H13.1v-18.1h30.8
		V128z M43.9,175.2H13.1v-18.1h30.8V175.2z M43.9,219.4H13.1v-18.1h30.8V219.4z M43.9,265.6H13.1v-18.1h30.8V265.6z M317.1,36.6
		h-30.8v-18h30.8V36.6z M317.1,80.8h-30.8v-18h30.8V80.8z M317.1,127h-30.8v-18.1h30.8V127z M317.1,174.2h-30.8v-18.1h30.8V174.2z
		 M317.1,218.4h-30.8v-18.1h30.8V218.4z M317.1,264.6h-30.8v-18.1h30.8V264.6z M317.1,310.8h-30.8v-18.1h30.8V310.8z"/>
</g>
</svg>
